<svg id="instagram" xmlns="http://www.w3.org/2000/svg" xmlns:xlink="http://www.w3.org/1999/xlink" width="40" height="40" viewBox="0 0 40 40">
  <defs>
    <linearGradient id="linear-gradient" x2="1" y2="1" gradientUnits="objectBoundingBox">
      <stop offset="0" stop-color="#0069d2"/>
      <stop offset="1" stop-color="#28e1a5"/>
    </linearGradient>
    <clipPath id="clip-path">
      <path id="mask" d="M6,20.1a11.071,11.071,0,0,1-2.4-.5,5.173,5.173,0,0,1-1.8-1.2A5.15,5.15,0,0,1,.6,16.6a5.041,5.041,0,0,1-.5-2.4A35.9,35.9,0,0,1,0,10.1,36.954,36.954,0,0,1,.1,6,7.443,7.443,0,0,1,.5,3.6,5.158,5.158,0,0,1,1.7,1.8,4.174,4.174,0,0,1,3.5.7,5.045,5.045,0,0,1,5.9.2,35.883,35.883,0,0,1,10,.1,21.076,21.076,0,0,0,14.1,0a10.989,10.989,0,0,1,2.4.5,5.15,5.15,0,0,1,1.8,1.2,5.173,5.173,0,0,1,1.2,1.8A5.057,5.057,0,0,1,20,5.9a35.882,35.882,0,0,1,.1,4.1c0,2.7-.1,3-.1,4.1a11.049,11.049,0,0,1-.5,2.4,5.523,5.523,0,0,1-3,3,5.053,5.053,0,0,1-2.4.5,35.9,35.9,0,0,1-4.1.1Z" transform="translate(2 2)" fill="#2e3134"/>
    </clipPath>
  </defs>
  <path id="Fill-16" d="M0,20A20,20,0,1,1,20,40,20.022,20.022,0,0,1,0,20Z" fill="url(#linear-gradient)"/>
  <g id="Social_Social_Media_instagram" data-name="Social / Social Media / instagram" transform="translate(8 8)">
    <rect id="Social_Social_Media_instagram_background" data-name="Social / Social Media / instagram background" width="24" height="24" fill="none"/>
    <g id="Group_1" data-name="Group 1">
      <path id="mask-2" data-name="mask" d="M6,20.1a11.071,11.071,0,0,1-2.4-.5,5.173,5.173,0,0,1-1.8-1.2A5.15,5.15,0,0,1,.6,16.6a5.041,5.041,0,0,1-.5-2.4A35.9,35.9,0,0,1,0,10.1,36.954,36.954,0,0,1,.1,6,7.443,7.443,0,0,1,.5,3.6,5.158,5.158,0,0,1,1.7,1.8,4.174,4.174,0,0,1,3.5.7,5.045,5.045,0,0,1,5.9.2,35.883,35.883,0,0,1,10,.1,21.076,21.076,0,0,0,14.1,0a10.989,10.989,0,0,1,2.4.5,5.15,5.15,0,0,1,1.8,1.2,5.173,5.173,0,0,1,1.2,1.8A5.057,5.057,0,0,1,20,5.9a35.882,35.882,0,0,1,.1,4.1c0,2.7-.1,3-.1,4.1a11.049,11.049,0,0,1-.5,2.4,5.523,5.523,0,0,1-3,3,5.053,5.053,0,0,1-2.4.5,35.9,35.9,0,0,1-4.1.1Z" transform="translate(2 2)" fill="#2e3134"/>
      <g id="Mask_Group_1" data-name="Mask Group 1" clip-path="url(#clip-path)">
        <g id="Select_Color" data-name="Select Color">
          <rect id="ui_color_white" data-name="ui/color/white" width="24" height="24" fill="#fff"/>
        </g>
      </g>
    </g>
  </g>
</svg>
