<svg id="pinterest" xmlns="http://www.w3.org/2000/svg" xmlns:xlink="http://www.w3.org/1999/xlink" width="40" height="40" viewBox="0 0 40 40">
  <defs>
    <linearGradient id="linear-gradient" x2="1" y2="1" gradientUnits="objectBoundingBox">
      <stop offset="0" stop-color="#0069d2"/>
      <stop offset="1" stop-color="#28e1a5"/>
    </linearGradient>
    <clipPath id="clip-path">
      <path id="mask" d="M9,14.2a3.467,3.467,0,0,1-2.6-1.1l-1.2,4-.1.3h0a1.425,1.425,0,0,1-1.2.6,1.367,1.367,0,0,1-1.4-1.4v-.2h0l.1-.2L4.9,9.3a8.252,8.252,0,0,1-.2-1.8c0-2.1,1.2-2.8,2.1-2.8S8.6,5,8.6,6.3C8.6,8,7.5,8.8,7.5,10a1.752,1.752,0,0,0,1.7,1.7c2.9,0,4-2.2,4-4.2A5.107,5.107,0,0,0,8,2.6,5.043,5.043,0,0,0,2.8,7.5a4.2,4.2,0,0,0,.7,2.4,1.421,1.421,0,0,1,.2.6,1.216,1.216,0,0,1-1.2,1.2,1.382,1.382,0,0,1-1.1-.6A4.944,4.944,0,0,1,0,7.4,7.6,7.6,0,0,1,7.8,0a7.6,7.6,0,0,1,7.8,7.4c-.1,3.3-2.1,6.8-6.6,6.8" transform="translate(4 3)" fill="#2e3134"/>
    </clipPath>
  </defs>
  <path id="Fill-16" d="M0,20A20,20,0,1,1,20,40,20.022,20.022,0,0,1,0,20Z" fill="url(#linear-gradient)"/>
  <g id="Social_Social_Media_pinterest" data-name="Social / Social Media / pinterest" transform="translate(8 8)">
    <rect id="Social_Social_Media_pinterest_background" data-name="Social / Social Media / pinterest background" width="24" height="24" fill="none"/>
    <g id="Group_5" data-name="Group 5">
      <path id="mask-2" data-name="mask" d="M9,14.2a3.467,3.467,0,0,1-2.6-1.1l-1.2,4-.1.3h0a1.425,1.425,0,0,1-1.2.6,1.367,1.367,0,0,1-1.4-1.4v-.2h0l.1-.2L4.9,9.3a8.252,8.252,0,0,1-.2-1.8c0-2.1,1.2-2.8,2.1-2.8S8.6,5,8.6,6.3C8.6,8,7.5,8.8,7.5,10a1.752,1.752,0,0,0,1.7,1.7c2.9,0,4-2.2,4-4.2A5.107,5.107,0,0,0,8,2.6,5.043,5.043,0,0,0,2.8,7.5a4.2,4.2,0,0,0,.7,2.4,1.421,1.421,0,0,1,.2.6,1.216,1.216,0,0,1-1.2,1.2,1.382,1.382,0,0,1-1.1-.6A4.944,4.944,0,0,1,0,7.4,7.6,7.6,0,0,1,7.8,0a7.6,7.6,0,0,1,7.8,7.4c-.1,3.3-2.1,6.8-6.6,6.8" transform="translate(4 3)" fill="#2e3134"/>
      <g id="Mask_Group_5" data-name="Mask Group 5" clip-path="url(#clip-path)">
        <g id="Select_Color" data-name="Select Color">
          <rect id="ui_color_white" data-name="ui/color/white" width="24" height="24" fill="#fff"/>
        </g>
      </g>
    </g>
  </g>
</svg>
