<svg xmlns="http://www.w3.org/2000/svg" xmlns:xlink="http://www.w3.org/1999/xlink" width="76" height="76" viewBox="0 0 76 76">
  <defs>
    <filter id="Oval" x="0" y="0" width="76" height="76" filterUnits="userSpaceOnUse">
      <feOffset dy="7" input="SourceAlpha"/>
      <feGaussianBlur stdDeviation="6" result="blur"/>
      <feFlood flood-color="#2e3134" flood-opacity="0.302"/>
      <feComposite operator="in" in2="blur"/>
      <feComposite in="SourceGraphic"/>
    </filter>
    <clipPath id="clip-path">
      <path id="mask" d="M-5.293,0,0,5.293l-5.293,5.293-.693-.693,4.247-4.246.353-.354-.353-.354L-5.986.693Z" transform="translate(-14.986 17.586) rotate(-180)" fill="#2e3134"/>
    </clipPath>
  </defs>
  <g id="slide_left_btn" transform="translate(58 11)">
    <g transform="matrix(1, 0, 0, 1, -58, -11)" filter="url(#Oval)">
      <g id="Oval-2" data-name="Oval" transform="translate(18 11)" fill="#000c28" stroke="rgba(244,245,247,0.32)" stroke-miterlimit="10" stroke-width="1" opacity="0.796">
        <circle cx="20" cy="20" r="20" stroke="none"/>
        <circle cx="20" cy="20" r="19.5" fill="none"/>
      </g>
    </g>
    <g id="Interface_General_icn_cheveron_right_line" data-name="Interface / General / icn_cheveron_right / line" transform="translate(-32 8)">
      <rect id="Interface_General_icn_cheveron_right_line_background" data-name="Interface / General / icn_cheveron_right / line background" width="24" height="24" fill="none"/>
      <g id="Group_7" data-name="Group 7" transform="translate(24)">
        <path id="mask-2" data-name="mask" d="M-5.293,0,0,5.293l-5.293,5.293-.693-.693,4.247-4.246.353-.354-.353-.354L-5.986.693Z" transform="translate(-14.986 17.586) rotate(-180)" fill="#2e3134"/>
        <g id="Mask_Group_7" data-name="Mask Group 7" clip-path="url(#clip-path)">
          <g id="Select_Color" data-name="Select Color" transform="translate(-24)">
            <rect id="ui_color_white" data-name="ui/color/white" width="24" height="24" fill="#fff"/>
          </g>
        </g>
      </g>
    </g>
  </g>
</svg>
